<?xml version="1.0" encoding="utf-8"?>
<!-- Generator: Adobe Illustrator 27.5.0, SVG Export Plug-In . SVG Version: 6.00 Build 0)  -->
<svg version="1.1" id="katman_1" xmlns="http://www.w3.org/2000/svg" xmlns:xlink="http://www.w3.org/1999/xlink" x="0px" y="0px"
	 viewBox="0 0 850 638" style="enable-background:new 0 0 850 638;" xml:space="preserve">
<style type="text/css">
	.st0{fill:#1D1D1B;}
	.st1{fill:#FF171F;}
	.st2{fill:#ED171F;}
	.st3{fill:#FFFFFF;}
</style>
<g>
	<g>
		<g>
			<path class="st0" d="M139.16,223.71c11.89,0.03,23.63,0.04,35.22,0.04c5.47,0,9.61,0.61,13.75,3.45
				c6.23,4.28,9.36,10.35,9.37,18.21c0.04,17.86,0.05,35.73,0.03,53.59c-0.01,9.42-7.58,17.43-16.18,19.46
				c-5.9,1.39-14.56,0.61-21.26,0.69c-0.15,0-0.27,0.12-0.27,0.27c-0.04,2.65-0.05,5.27-0.06,7.84
				c-0.03,18.82-0.03,37.65,0.02,56.49c0,0.19-0.15,0.34-0.33,0.34h-20.52c-0.09,0-0.16-0.07-0.16-0.16c0-52.76,0-105.52,0-158.29
				c0-0.48,0.23-1.14,0.16-1.66c-0.02-0.13,0.07-0.25,0.2-0.27C139.13,223.71,139.15,223.71,139.16,223.71z M159.85,243.72
				l-0.07,56.62c0,0.15,0.12,0.27,0.26,0.28c8.12,0.45,16.76,1.72,16.75-9.64c0-12.53,0-25.06,0-37.58
				c0-11.86-7.68-10.02-16.48-10.14C160.06,243.26,159.86,243.47,159.85,243.72z"/>
			<path class="st0" d="M628.13,263.5c-0.2,50.8-0.23,87.43-0.07,109.9c0.04,5.56,0.02,9.05-0.04,10.48
				c-0.01,0.15-0.13,0.26-0.27,0.26l-19.15-0.03c-0.29,0-0.52-0.23-0.52-0.51V266.93c0-3.61-0.18-3.62-0.53-0.03
				c-1.1,11.2-2.4,23.2-4.06,34.86c-3.9,27.34-7.79,54.69-11.65,82.05c-0.02,0.15-0.15,0.27-0.3,0.26l-15.51,0.02
				c-0.23,0-0.42-0.17-0.45-0.39c-3.8-28.21-7.51-55.89-11.13-83.03c-0.47-3.54-0.89-7.03-1.26-10.49
				c-0.24-2.23-2.8-26.38-2.84-26.39c-0.05,0-0.09,0.08-0.09,0.19c0,0,0,0.01,0,0.01v119.81c0,0.15-0.12,0.27-0.27,0.27l0,0
				l-17.94,0.02c-0.16,0-0.29-0.13-0.29-0.29c0,0,0,0,0,0l-0.01-64.95l0.02-94.85c0-0.15,0.12-0.26,0.26-0.26l28.07-0.02
				c0.15,0,0.28,0.11,0.3,0.26c3.97,28.09,7.86,56.19,11.68,84.31c0.42,3.1,1.43,12.33,3.02,27.7c0.02,0.18,0.04,0.18,0.08,0.01
				c0.25-1.19,0.41-2.01,0.46-2.48c1.1-9.66,2.02-19.4,3.31-29.01c3.59-26.83,7.23-53.65,10.94-80.46c0.02-0.15,0.15-0.27,0.3-0.26
				l27.55-0.01c0.15,0,0.27,0.12,0.27,0.26c0,0,0,0,0,0L628.13,263.5z"/>
			<path class="st0" d="M708.09,352l4.18,31.8c0.02,0.13-0.07,0.25-0.19,0.27c-0.01,0-0.02,0-0.03,0l-21.13,0.01
				c-0.15,0-0.27-0.11-0.29-0.26l-5.06-50.19l-6.21-67.98c-0.01-0.18-0.03-0.18-0.05,0l-7.54,67.57c-0.01,0.13,0.08,0.25,0.22,0.26
				c0.01,0,0.01,0,0.02,0l13.22,0.18c0.05,0.5-0.03,0.99-0.22,1.45c-2.48,5.89-4.98,11.79-7.49,17.68
				c-0.06,0.15-0.21,0.24-0.36,0.24l-7.35,0.03c-0.31,0-0.57,0.23-0.61,0.54l-3.49,30.21c-0.02,0.15-0.15,0.27-0.3,0.26L646.74,384
				c-0.13,0-0.23-0.11-0.23-0.24c0-0.01,0-0.02,0-0.03l6.19-46.79l15.04-112.88c0.02-0.19,0.18-0.33,0.37-0.33l22.58,0.09
				c0.15,0,0.27,0.12,0.29,0.27L708.09,352z"/>
			<path class="st0" d="M795.25,383.95l-16.17,0.11c-0.17,0-0.32-0.12-0.37-0.29c-9.76-32.91-19.73-65.82-28.64-99
				c-0.17-0.64-0.26-0.63-0.26,0.04l-0.01,99c0,0.15-0.12,0.27-0.26,0.27l-18.72,0.02c-0.09,0-0.16-0.07-0.16-0.16c0,0,0,0,0,0
				l-0.01-25.05l0.01-134.97c0-0.11,0.09-0.21,0.21-0.21l0,0l19.15,0.04c0.25,0,0.47,0.17,0.53,0.41
				c8.88,33.65,17.81,66.58,25.82,99.7c0.04,0.17,0.07,0.17,0.09-0.01c0.12-1.4,0.18-2.49,0.18-3.27
				c-0.02-32.16-0.01-64.31,0.02-96.47c0-0.14,0.12-0.26,0.26-0.26c6.09-0.17,12.11-0.15,18.07,0.06c0.15,0.01,0.26,0.13,0.26,0.27
				L795.25,383.95z"/>
			<path class="st0" d="M95.26,223.78c9.97,0.28,18.53,8.4,19.73,18.2c0.26,2.18,0.35,5.21,0.25,9.09c0,0.17-0.07,0.33-0.2,0.45
				l-21.17,20.54c-0.13,0.12-0.19,0.09-0.2-0.08c-0.12-5.7-0.15-11.39-0.1-17.06c0.03-3.05-0.2-5.23-0.67-6.54
				c-2.61-7.13-13.21-6.82-16,0.19c-1.27,3.18-0.48,11.02-0.32,14.77c0.2,4.67,2.24,9.01,5.06,13.36
				c8.39,12.93,16.81,25.84,25.23,38.75c3.98,6.1,6.53,12.88,7.66,20.34c1.15,7.62,0.57,17,0.55,25.23
				c-0.01,3.56-0.26,6.23-0.77,7.99c-2.62,9.17-10.96,15.04-20.49,15.06c-4.55,0.01-9.1,0.02-13.65,0.04
				c-4.44,0.02-7.65-0.23-9.62-0.73c-11.93-3.08-17.38-14.54-15.44-26.18c0.03-0.17,0.11-0.32,0.24-0.44L76.2,336.6
				c0.14-0.14,0.21-0.11,0.21,0.09c-0.02,6.6-0.01,13.24,0.03,19.9c0.06,10.59,17.01,11.04,17.13-0.49
				c0.05-4.59,0.03-9.18-0.06-13.77c-0.13-6.84-2.24-11.13-6.29-17.33c-7.36-11.28-14.71-22.56-22.04-33.84
				c-5.54-8.53-8.95-16.01-10.02-25.91c-0.54-5.07-0.3-11.76-0.28-17.56c0.01-4.11,0.27-7.08,0.78-8.89
				c1.92-6.81,7.57-12.4,14.34-14.26c1.91-0.52,5.41-0.79,10.5-0.8C88.52,223.72,93.44,223.73,95.26,223.78z"/>
			<path class="st0" d="M221.18,368.5l0.01-144.46c0-0.15,0.12-0.27,0.27-0.27h20.6c0.15,0,0.26,0.12,0.26,0.26l0.02,102.48
				l-0.02,49.75c0,0.41-0.17,0.8-0.46,1.09l-20.41,19.79c-0.17,0.17-0.26,0.13-0.26-0.11l-0.13-11.67L221.18,368.5z"/>
			<path class="st0" d="M324.76,325.72c0.01,11.63-0.01,23.27-0.07,34.91c-0.02,3.74-0.29,6.51-0.81,8.3
				c-1.97,6.81-7.49,12.41-14.28,14.35c-1.87,0.53-4.94,0.8-9.21,0.81c-11.33,0.02-22.66,0.02-33.98-0.01
				c-0.15,0-0.27-0.12-0.27-0.26l-0.19-49.25c0.02-30.86,0.03-61.72,0.02-92.58c-0.01-5.55-0.13-10.16,0.16-17.97
				c0.01-0.15,0.13-0.26,0.27-0.26c11.25-0.02,22.5-0.02,33.75,0c4.37,0.01,7.51,0.28,9.43,0.81c9.36,2.61,15.27,11.42,15.25,21.1
				C324.76,272.35,324.74,299.04,324.76,325.72z M304,251.48c0-3.87-2.86-7.89-6.91-8.15c-1.37-0.09-4.66-0.1-9.86-0.01
				c-0.15,0-0.26,0.13-0.26,0.27v120.66c0,0.15,0.12,0.27,0.26,0.27c7.04,0.06,16.76,1.75,16.76-8.73
				C304.01,321.03,304.01,286.26,304,251.48z"/>
			<path class="st0" d="M370.33,311.58v52.27c0,0.15,0.12,0.26,0.26,0.26l29.61-0.01c0.15,0,0.27,0.12,0.27,0.27l0.05,19.44
				c0,0.15-0.12,0.26-0.26,0.26l-50.61-0.04c-0.15,0-0.26-0.12-0.26-0.26l-0.11-66.65l0.02-93.1c0-0.16,0.13-0.29,0.28-0.29l0,0
				l50.69,0.01c0.14,0,0.26,0.12,0.26,0.27l0.01,19.12c0,0.15-0.12,0.27-0.27,0.27l-29.69,0.15c-0.15,0-0.26,0.12-0.26,0.26v47.91
				c0,0.09,0.07,0.16,0.16,0.16l19.13,0.04c0.1,0,0.17,0.08,0.17,0.18c0,0.02-0.01,0.05-0.01,0.07l-7.77,18.45
				c-0.06,0.15-0.2,0.25-0.36,0.25l-10.94,0.02c-0.18,0-0.34,0.1-0.37,0.24C370.28,311.27,370.28,311.43,370.33,311.58z"/>
			<path class="st0" d="M482.73,321.75c0.28,19.3,0.38,38.6,0.29,57.91v17.48l-20.59-19.86c-0.12-0.12-0.19-0.28-0.19-0.46
				c0-15.26,0.01-30.51,0.01-45.76c0-3.71-0.26-6.17-0.79-7.39c-2.45-5.69-9.85-4.77-15.98-4.42c-0.15,0.01-0.26,0.13-0.26,0.29
				l-0.01,64.32c0,0.13-0.11,0.24-0.24,0.24c0,0,0,0,0,0l-20.34-0.01c-0.15,0-0.26-0.12-0.26-0.27l-0.17-52.02
				c0.02-35.92,0.16-71.85,0.17-107.78c0-0.15,0.12-0.26,0.26-0.26c11.17-0.02,22.34-0.02,33.5,0c4.52,0,7.74,0.27,9.67,0.81
				c7,1.94,12.6,7.77,14.45,14.87c0.42,1.61,0.64,4.03,0.66,7.24c0.12,15.61,0.16,31.22,0.13,46.84
				c-0.02,8.12-5.73,15.42-13.83,16.21c-0.64,0.06-0.65,0.16-0.02,0.28C475.88,311.28,480.39,315.2,482.73,321.75z M454.18,300.76
				c4.31-0.02,8.04-3.4,8.05-7.71c0.02-12.9,0.02-25.79,0.02-38.68c-0.01-4.67-0.21-8.35-4.51-10.29
				c-3.06-1.38-8.54-0.82-12.25-0.72c-0.14,0-0.26,0.12-0.26,0.27l-0.01,56.81c0,0.15,0.12,0.27,0.26,0.27
				C448.4,300.77,451.31,300.78,454.18,300.76z"/>
			<path class="st0" d="M525.54,302.34l-0.05,14.5c0,0.14-0.12,0.26-0.26,0.26l0,0l-26.1-0.1v-15.97c0-0.15,0.12-0.26,0.27-0.26l0,0
				l25.83-0.01c0.15,0,0.27,0.12,0.27,0.27L525.54,302.34z"/>
		</g>
		<path class="st1" d="M475.89,389.81l4.74-4.72c10.79-11.56,19.24-20.1,25.34-25.63c2.7-2.45,9.76-1.96,8.43,3.33
			c-0.19,0.76-0.78,1.89-1.78,3.39c-19.32,29.24-38.27,58.84-53.28,89.76c-1.29,2.66-3.73,4.3-6.47,2.86
			c-1.58-0.83-2-2.06-1.27-3.69c8.53-18.81,18.2-37.02,29.01-54.62c0.16-0.26,0.13-0.29-0.1-0.07
			c-14.82,14.01-29.06,28.55-42.74,43.63c-3.67,4.05-6.76,8.26-11.51,5.89c-1.54-0.77-1.95-1.96-1.24-3.56l15.07-33.84
			c0.45-1.02,0.26-1.16-0.57-0.41c-14.18,12.77-27.21,26.55-41.17,39.5c-5.08,4.71-10.82,9.14-17.22,13.28
			c-0.89,0.58-1.85,0.71-2.87,0.41c-2.13-0.65-1.8-3.09-0.26-4.43c26.07-22.54,49.54-48.16,72.44-73.85c2.4-2.7,5.54-5.02,8.52-1.8
			c1.1,1.18,1.32,2.52,0.68,4c-5.22,12-10.47,23.82-15.75,35.45c-0.11,0.26-0.1,0.37,0.2,0.4c0.12,0.01,0.25-0.05,0.35-0.16
			L475.89,389.81z"/>
		<path class="st1" d="M223.22,385.88c-9,13.6-17.49,27.58-26.58,41.05c-14.79,21.9-29.06,44.14-42.79,66.72
			c-0.99,1.63-2.28,3.25-3.39,4.9c-0.18,0.26-0.43,0.45-0.72,0.54c-6.12,1.83-5.76-3-3.76-6.5c17.88-31.19,37.03-61.58,57.44-91.17
			c0.9-0.54,1.42-1.3,1.56-2.28c0.04-0.34-0.08-0.42-0.38-0.24c-0.78,0.47-1.33,1.15-1.65,2.04c-16.04,14.24-30.59,29.6-45.63,45.09
			c-0.7,0.72-1.55,1.15-2.56,1.27c-5.66,0.68-5.32-3.97-3.29-7.42c1.81-3.08,17.07-31.3,15.77-32.57c-0.17-0.17-0.51-0.12-0.77,0.12
			c-7.14,6.3-14.32,12.56-21.55,18.78c-12.72,10.96-24.93,22.7-37.57,33.86c-0.5,0.44-1.22,0.91-2.17,1.41
			c-1.64-0.23-2.29-1.01-1.93-2.36c0.3-1.11,0.84-2.08,1.62-2.93c22.49-24.55,46.68-47.36,70.68-70.33
			c3.98-3.8,11.69-2.04,8.77,4.75c-3.63,8.44-7.3,16.88-10.99,25.31c-0.1,0.24-0.03,0.51,0.17,0.6c0.02,0.01,0.05,0.02,0.08,0.02
			c0.42,0.08,0.85-0.13,1.31-0.64c15.88-17.56,32.7-33.33,50.47-47.31c3.26-2.56,7.88,1.76,5.37,5.63
			C228.21,378.1,225.71,381.98,223.22,385.88z"/>
		<path class="st1" d="M655.12,438.52c1.11,0.14,2.32,0.14,3.64-0.02c8.66-1,17.29-0.89,25.88,0.34c1.9,0.28,2.46,1.17,1.68,2.69
			c-1.66,3.25-8.42,3.19-11.62,3.21c-23.88,0.13-47.1,4.04-69.67,11.74c-3.54,1.21-7.27,1.75-8.65-2.33
			c-0.62-1.84-0.3-3.73,0.97-5.67c12.58-19.15,26.64-37.14,42.19-53.98c0.2-0.22,0.5-0.31,0.77-0.25c6.34,1.57,2.02,4.86,0.26,7.28
			c-10.15,14.06-19.82,28.42-29.03,43.07c-0.35,0.55-0.2,0.74,0.43,0.58c9.31-2.42,18.75-4.08,28.34-4.96
			c1.44-0.13,2.85-0.34,4.25-0.64c0.29-0.06,0.56-0.23,0.76-0.47c2.12-2.68,7.25-8.42,5.1-11.92c-0.67-1.09-0.18-1.8,1.46-2.13
			c5.41-1.09,7.24-6.1,10.28-10.19c0.16-0.21,0.16-0.51-0.01-0.74c-4.15-5.36,5.29-6.9,8.62-7.18c1.09-0.09,31.52-2.86,27.14,2.19
			c-0.48,0.54-1.1,0.9-1.78,1.02l-24.87,4.42c-0.32,0.06-0.6,0.2-0.81,0.42c-2.2,2.21-4,4.69-5.41,7.44
			c-0.18,0.35-0.07,0.5,0.32,0.46c4.91-0.45,9.8-0.32,14.67,0.41c2.61,0.4,2.46,2.33-0.07,2.88c-5.68,1.23-11.85,2.31-18.51,3.26
			c-1.08,0.15-1.96,0.75-2.64,1.8l-4.11,6.33c-0.18,0.28-0.11,0.65,0.16,0.83C654.94,438.48,655.03,438.51,655.12,438.52z"/>
		<path class="st1" d="M276.69,428.27c3.26-0.36,22.25-1.98,21.37,0.13c-0.11,0.25-0.36,0.44-0.69,0.52l-24.31,5.75
			c-0.56,0.13-1.06,0.52-1.37,1.07l-4.18,7.38c-0.94,1.65-0.5,2.24,1.31,1.76c8.38-2.22,16.64-3.68,24.81-4.38
			c2.86-0.25,5.79,1.11,3.58,4.47c-0.16,0.24-0.41,0.42-0.72,0.52c-11.92,3.82-24.55,5.84-36.79,8.49
			c-3.67,0.79-7.52-1.16-5.03-5.34c1.79-2.99,3.55-5.89,5.28-8.7c0.38-0.62,0.22-0.82-0.46-0.61c-11.46,3.46-22.42,8.05-32.88,13.77
			c-2.83,1.54-5.74,2.45-8.44,0.96c-5.13-2.83-0.41-9.59,1.6-12.71c9.58-14.97,19.88-29.89,30.9-44.78
			c0.67-0.91,1.57-1.35,2.69-1.33c3.02,0.05,1.94,3.67,0.88,5.42c-7.34,12.14-14.76,24.65-22.27,37.54c-0.71,1.23-0.4,1.6,0.94,1.11
			c10.08-3.64,20.8-6.54,32.15-8.7c0.38-0.07,0.71-0.29,0.93-0.61l7.61-11.35c0.13-0.18,0.07-0.44-0.13-0.58
			c-0.01-0.01-0.03-0.02-0.04-0.03c-6.82-3.62,6.98-6.72,8.86-6.59c5.72,0.36,11.22-0.83,16.55-0.79c0.09,0,14.68-0.27,9.17,2.58
			c-0.96,0.49-2.11,0.82-3.47,0.98l-20.07,2.42c-0.54,0.07-1.06,0.37-1.45,0.84c-2.62,3.22-4.81,6.7-6.57,10.42
			C276.29,428.18,276.38,428.31,276.69,428.27z"/>
		<path class="st1" d="M558.08,445.07c-1.79,0.28-3.09-0.32-3.9-1.82c-0.14-0.26-0.11-0.57,0.08-0.79c1.9-2.32,7.18-2.8,10.06-3.53
			c0.3-0.08,0.57-0.24,0.79-0.45c6.73-6.61,32.5-32.58,38.67-31.98c3.9,0.39,2.49,3.86,1.3,6.13c-6.51,12.37-11.59,25.3-15.27,38.77
			c-1.55,5.68-3.22,10.1-5.53,14.96c-0.66,1.4-1.58,1.6-2.77,0.61c-2.99-2.49,1.78-19.4,3.01-23.09c0.06-0.2-0.05-0.42-0.25-0.49
			c-0.02-0.01-0.04-0.01-0.07-0.01c-4.66-0.52-14.42-1.04-18.15,2.06c-3.66,3.03-7.39,5.89-11.2,8.57c-0.14,0.1-0.18,0.29-0.08,0.43
			c0.03,0.04,0.06,0.07,0.1,0.1c3.5,2.14,7.06,4.19,10.66,6.15c1.95,1.06,4.08,3.5,1.55,5.23c-2.31,1.6-5.95,0.05-8.26-1.16
			c-8.6-4.5-24.58-14.65-27.27-24.58c-0.28-1.03-0.7-1.09-1.26-0.18c-3.78,6.12-8.33,11.59-13.64,16.4
			c-0.23,0.21-0.52,0.35-0.82,0.41c-6.14,1.05-4.38-3.67-2.29-6.29c5.94-7.39,11.01-14.86,15.21-22.43
			c3.17-5.7,4.36-16.46-6.38-13.88c-2.73,0.65-5.4,1.49-8.03,2.51c-0.62,0.24-0.97,0.89-0.82,1.54c1.93,8.64-0.54,16-5.18,23.63
			c-5.17,8.5-15.9,19.32-26.95,16.73c-11.01-2.59-5.2-17.28-1.04-23.22c4.78-6.81,10.16-12.11,16.14-15.9
			c1.17-0.74,4.34-1.55,2.44-3.5c-1.06-1.08-0.91-1.94,0.47-2.57c2.91-1.33,5.81-1.49,8.69-0.49c0.29,0.1,0.61,0.09,0.88-0.03
			c8.42-3.77,25.44-11.15,29.1,3.12c0.07,0.28,0.36,0.45,0.64,0.38c0.07-0.02,0.14-0.05,0.2-0.1c6.04-4.82,13.39-9.16,21.27-7.83
			c6.84,1.14,9.45,6.96,7.1,13.22c-3.99,10.7-17.12,13.48-26.9,15.37c-2.05,0.4-2.45,1.43-1.18,3.09
			c3.31,4.33,7.28,8.21,11.89,11.63c0.67,0.5,1.61,0.4,2.13-0.24l5-6.2C558.45,445.11,558.39,445.02,558.08,445.07z M558.89,415.57
			c-1.04-0.53-2.1-0.59-3.19-0.17c-8.09,3.09-14.5,8.32-19.21,15.69c-0.57,0.88-0.33,1.25,0.71,1.11
			c8.68-1.17,18.04-4.2,22.67-11.89C560.94,418.52,560.85,416.58,558.89,415.57z M483.91,452.04c1.15,0.63,2.35,0.72,3.59,0.28
			c10.4-3.67,21.62-18.7,19.54-30.49c-0.06-0.37-0.41-0.61-0.78-0.54c-0.07,0.01-0.13,0.03-0.19,0.06
			c-7.83,3.98-14.33,9.56-19.48,16.74C484.29,441.29,479.55,449.65,483.91,452.04z M587.22,435.46c1.38-3.42,2.46-6.97,3.24-10.65
			c0.1-0.47-0.03-0.55-0.39-0.25l-13.41,11.39c-0.7,0.59-0.59,0.87,0.34,0.83l8.81-0.33C586.43,436.44,586.98,436.05,587.22,435.46z
			"/>
		<path class="st1" d="M702.88,424.31c8.32-0.08,22.53-1.68,25.39,7.45c1.61,5.11-2.15,9.33-6.57,11.86
			c-14.46,8.24-30,14.05-46.63,17.43c-1.77,0.36-3.3-0.1-4.59-1.37c-4.43-4.38,4.48-7.31,7.76-8.12c11.2-2.76,22.09-6.46,32.67-11.1
			c3.58-1.57,6.65-3.27,9.2-5.09c1.59-1.13,1.43-1.88-0.49-2.25c-6.2-1.18-12.46-1.75-18.78-1.7c-4.18,0.04-9.1,1.12-9.54-4.93
			c-0.2-2.72,1.05-4.78,3.74-6.17c10.66-5.5,21.92-9.07,33.78-10.73c0.33-0.05,0.64,0.02,0.88,0.19c1.02,0.74,1.22,1.71,0.59,2.9
			c-0.13,0.26-0.38,0.46-0.69,0.55c-9.11,2.74-18.27,5.71-26.61,10.36c-0.21,0.12-0.35,0.29-0.33,0.43l0.02,0.15
			C702.68,424.25,702.77,424.31,702.88,424.31z"/>
		<path class="st1" d="M195.1,456.54c-2.27-1.71,1.66-8.2,2.66-10c9.09-16.29,14.43-25.6,20.69-34.08c0.86-1.17,2.02-1.83,3.47-1.97
			c4.46-0.45,4.98,3.12,2.95,6.22c-8.71,13.29-17.6,26.45-26.68,39.47C197.36,457.35,196.33,457.48,195.1,456.54z"/>
		<path class="st1" d="M319.23,422.27c-0.24,0.27-0.18,0.4,0.19,0.4c5.43-0.13,10.82-0.22,16.16-0.26
			c8.37-0.06,14.07,7.79,8.47,15.09c-1.1,1.43-4.05,3.91-5.77,4.96c-16.61,10.09-34.44,17.08-53.5,20.98
			c-2.76,0.57-6.44-0.2-5.18-3.87c0.5-1.45,1.49-2.36,2.98-2.72c6.03-1.47,11.88-3.02,17.55-4.66c12.05-3.48,23.39-8.51,34.04-15.09
			c5.67-3.5,7.36-8.25-1.57-8.59c-5.82-0.23-11.24-0.1-16.28,0.37c-7.35,0.69-11.74-5.64-4.18-9.94c10.6-6.01,19.16-7.23,31.07-8.28
			c1.75-0.16,2.34,0.27,1.76,1.28c-0.14,0.24-0.39,0.44-0.71,0.55c-7.91,2.65-15.72,5.54-23.43,8.65
			C320.2,421.41,319.67,421.78,319.23,422.27z"/>
	</g>
	<g>
		<path id="path6935" class="st2" d="M495.6,195.7H354.4v-57.19H495.6V195.7z"/>
		<path id="path6939" class="st3" d="M491.19,182.51v8.57h-15.85v-47.63h8.53v39.07H491.19z M423.48,166.8
			c-0.66,0.32-1.35,0.48-2.02,0.48v-15.32c0.01,0,0.02,0,0.04,0c0.67-0.01,5.7,0.2,5.7,7.58
			C427.2,163.39,425.49,165.82,423.48,166.8 M398.47,176.2l2.36-20.37l2.45,20.37H398.47z M473.86,152.13v-8.68h-24.16l-3.98,29.01
			l-3.93-29.01h-8.71l0.97,7.74c-1.01-1.98-4.57-7.74-12.42-7.74c-0.05-0.01-8.72,0-8.72,0l-0.04,42.28l-6.35-42.28l-11.41-0.01
			l-6.57,43.81v-43.8h-10.92l-3.94,24.61l-3.84-24.61h-10.93v47.63h8.61v-22.96l3.92,22.96H376l3.86-22.96v22.96h16.59l1-7.33h6.68
			l1,7.33l16.29,0.01h0.01v-0.01h0.01h0.02v-15.46l1.99-0.29l4.13,15.76h0.01h8.4H436l-0.01-0.01h0.02h0.01l-5.42-18.48
			c2.75-2.03,5.85-7.2,5.02-12.14v0c0.01,0.07,5.12,30.64,5.12,30.64l10.02-0.03l6.84-43.17v43.17h16.24v-8.57h-7.71v-10.92h7.71
			v-8.7h-7.71v-10.76L473.86,152.13z"/>
	</g>
</g>
</svg>
